<?xml version="1.0" encoding="UTF-8" standalone="no"?>
<!-- Created with Inkscape (http://www.inkscape.org/) -->

<svg
   width="32"
   height="32"
   viewBox="0 0 32 32"
   version="1.1"
   id="svg1"
   sodipodi:docname="icon.svg"
   inkscape:version="1.3.2 (091e20ef0f, 2023-11-25, custom)"
   xmlns:inkscape="http://www.inkscape.org/namespaces/inkscape"
   xmlns:sodipodi="http://sodipodi.sourceforge.net/DTD/sodipodi-0.dtd"
   xmlns="http://www.w3.org/2000/svg"
   xmlns:svg="http://www.w3.org/2000/svg">
  <sodipodi:namedview
     id="namedview1"
     pagecolor="#ffffff"
     bordercolor="#000000"
     borderopacity="0.25"
     inkscape:showpageshadow="2"
     inkscape:pageopacity="0.0"
     inkscape:pagecheckerboard="0"
     inkscape:deskcolor="#d1d1d1"
     inkscape:document-units="px"
     inkscape:zoom="8"
     inkscape:cx="-19.9375"
     inkscape:cy="21.125"
     inkscape:window-width="1920"
     inkscape:window-height="1052"
     inkscape:window-x="0"
     inkscape:window-y="0"
     inkscape:window-maximized="1"
     inkscape:current-layer="layer1" />
  <defs
     id="defs1" />
  <g
     inkscape:label="Ebene 1"
     inkscape:groupmode="layer"
     id="layer1">
    <path
       id="path3"
       style="fill:#000000;stroke-width:0.985593"
       d="M 20.398438,14.198525 A 4.5376139,2.8854551 0 0 1 16,16.386025 4.5376139,2.8854551 0 0 1 11.605469,14.210244 10.87111,8.1818247 0 0 0 5.1289059,21.6829 10.87111,8.1818247 0 0 0 11.232422,29.016884 4.9615626,3.1008515 0 0 1 16,26.762978 a 4.9615626,3.1008515 0 0 1 4.771484,2.251953 10.87111,8.1818247 0 0 0 6.09961,-7.332031 10.87111,8.1818247 0 0 0 -6.472656,-7.484375 z" />
    <rect
       style="fill:#000000"
       id="rect6"
       width="2.2067721"
       height="2.6428835"
       x="12.735979"
       y="27.909616" />
    <ellipse
       style="fill:#000000"
       id="path9"
       cx="16"
       cy="12.776934"
       rx="2.7633498"
       ry="2.510617" />
    <path
       style="fill:#000000"
       d="m 13.23665,12.776933 -0.918,-3.6492334 1.800291,-3.4175877 -0.57629,-4.90221144 4.421375,5.16501174 -0.114479,3.4776854 0.546428,2.0755124"
       id="path10" />
    <path
       style="fill:#666666;stroke-width:0.03125"
       d="M 10.796875,28.829812 C 10.256923,28.603802 9.9979669,28.479248 9.5568937,28.233403 7.8658058,27.290823 6.5947242,26.024982 5.843738,24.535558 4.9039884,22.671761 4.9168584,20.623582 5.8801512,18.740604 c 0.3525433,-0.689127 0.8314303,-1.331346 1.4617579,-1.960316 0.9383074,-0.936286 2.1074468,-1.702006 3.4237159,-2.242342 0.30171,-0.123853 0.818836,-0.309285 0.826779,-0.296468 0.0029,0.0047 0.06768,0.120629 0.143938,0.25765 0.264112,0.474532 0.822795,0.960191 1.487281,1.292881 0.53013,0.265421 1.329746,0.489447 2.017333,0.565189 0.389162,0.04287 1.128926,0.04287 1.518088,0 1.644366,-0.181137 3.025804,-0.936467 3.549191,-1.940593 l 0.106663,-0.204637 0.433176,0.163001 c 1.516042,0.570478 2.703136,1.310515 3.756421,2.341761 0.703417,0.6887 1.185525,1.341999 1.569654,2.12702 0.90378,1.847001 0.903233,3.824686 -0.0016,5.658459 -0.817403,1.656651 -2.349173,3.089644 -4.310608,4.032639 -0.382704,0.183992 -1.010797,0.449527 -1.063304,0.449527 -0.0176,0 -0.06688,-0.06885 -0.10953,-0.153009 -0.348729,-0.688184 -1.314247,-1.382491 -2.407892,-1.731523 -1.195524,-0.381546 -2.656938,-0.446226 -3.92064,-0.173523 -1.364253,0.294403 -2.519145,1.005892 -3.018357,1.859507 -0.06386,0.109201 -0.131841,0.197617 -0.151059,0.19648 -0.01922,-0.0011 -0.196663,-0.06976 -0.394319,-0.152495 z"
       id="path14" />
    <path
       style="fill:#666666;stroke-width:0.03125"
       d="m 15.5625,15.245174 c -0.553886,-0.116988 -0.827993,-0.223819 -1.186745,-0.462524 -0.637618,-0.424257 -1.03082,-1.058768 -1.108154,-1.788233 -0.01757,-0.165778 -0.210054,-0.990606 -0.482852,-2.069158 L 12.331121,9.131769 13.232057,7.4225219 14.132994,5.713275 13.855706,3.3722624 C 13.703198,2.0847056 13.581868,0.99870747 13.586084,0.95893327 c 0.006,-0.0567728 0.476042,0.47502953 2.186736,2.47415633 l 2.17907,2.5464729 -0.05904,1.7289687 -0.05904,1.7289688 0.27557,1.046875 c 0.173127,0.657697 0.305529,1.099152 0.356157,1.1875 0.04432,0.07734 0.119428,0.253125 0.166903,0.390625 0.07948,0.23019 0.08627,0.287143 0.08568,0.71875 -5.87e-4,0.431351 -0.0076,0.488696 -0.08774,0.71875 -0.303983,0.872464 -1.072469,1.512152 -2.062216,1.71659 -0.218358,0.0451 -0.843337,0.06287 -1.005653,0.02858 z"
       id="path15" />
    <path
       style="fill:#666666;stroke-width:0.03125"
       d="m 12.734375,29.234375 v -1.3125 h 1.09375 1.09375 v 1.3125 1.3125 h -1.09375 -1.09375 z"
       id="path16" />
    <ellipse
       style="fill:#ffffff"
       id="path17"
       cx="16"
       cy="23.730961"
       rx="3.2147946"
       ry="1.7281179" />
    <path
       sodipodi:type="spiral"
       style="fill:none;fill-rule:evenodd;stroke:#fdfdfd;stroke-opacity:1"
       id="path18"
       sodipodi:cx="7.8673224"
       sodipodi:cy="17.726166"
       sodipodi:expansion="1"
       sodipodi:revolution="4"
       sodipodi:radius="8.2102947"
       sodipodi:argument="-24.995024"
       sodipodi:t0="0"
       d="m 7.8673224,17.726166 c 0.3058152,0.04238 0.093745,0.433143 -0.070446,0.508285 C 7.35193,18.438079 6.9215257,17.996455 6.8507526,17.585274 6.7241561,16.849769 7.3872023,16.250756 8.0786594,16.201311 c 1.0147412,-0.07256 1.8023002,0.837148 1.8218028,1.806637 0.025994,1.292178 -1.1384056,2.273453 -2.385368,2.259642 -1.569175,-0.01738 -2.7462881,-1.439872 -2.6974814,-2.964098 0.059112,-1.846042 1.7414461,-3.220087 3.5428292,-3.135321 2.122868,0.09989 3.694488,2.043084 3.57316,4.12156 -0.140078,2.399683 -2.3447646,4.169292 -4.7002905,4.010999 -2.6764982,-0.179862 -4.6443772,-2.646476 -4.4488384,-5.279021 0.2193649,-2.953317 2.9482104,-5.119668 5.8577516,-4.886678 3.2301423,0.258664 5.5951123,3.249963 5.3245173,6.436483 -0.297808,3.506972 -3.551729,6.070675 -7.0152131,5.762356 -3.7838066,-0.336834 -6.54633113,-3.853505 -6.2001956,-7.593943 0.3757671,-4.060646 4.1552913,-7.0220618 8.172674,-6.638035 4.3374887,0.414625 7.4978517,4.457084 7.0758737,8.751404"
       transform="matrix(0.35889354,0,0,0.3740938,7.8000782,13.101817)" />
    <path
       sodipodi:type="spiral"
       style="fill:none;fill-rule:evenodd;stroke:#fdfdfd;stroke-opacity:1"
       id="path18-5"
       sodipodi:cx="7.8673224"
       sodipodi:cy="17.726166"
       sodipodi:expansion="1"
       sodipodi:revolution="4"
       sodipodi:radius="8.2102947"
       sodipodi:argument="-24.995024"
       sodipodi:t0="0"
       d="m 7.8673224,17.726166 c 0.3058152,0.04238 0.093745,0.433143 -0.070446,0.508285 C 7.35193,18.438079 6.9215257,17.996455 6.8507526,17.585274 6.7241561,16.849769 7.3872023,16.250756 8.0786594,16.201311 c 1.0147412,-0.07256 1.8023002,0.837148 1.8218028,1.806637 0.025994,1.292178 -1.1384056,2.273453 -2.385368,2.259642 -1.569175,-0.01738 -2.7462881,-1.439872 -2.6974814,-2.964098 0.059112,-1.846042 1.7414461,-3.220087 3.5428292,-3.135321 2.122868,0.09989 3.694488,2.043084 3.57316,4.12156 -0.140078,2.399683 -2.3447646,4.169292 -4.7002905,4.010999 -2.6764982,-0.179862 -4.6443772,-2.646476 -4.4488384,-5.279021 0.2193649,-2.953317 2.9482104,-5.119668 5.8577516,-4.886678 3.2301423,0.258664 5.5951123,3.249963 5.3245173,6.436483 -0.297808,3.506972 -3.551729,6.070675 -7.0152131,5.762356 -3.7838066,-0.336834 -6.54633113,-3.853505 -6.2001956,-7.593943 0.3757671,-4.060646 4.1552913,-7.0220618 8.172674,-6.638035 4.3374887,0.414625 7.4978517,4.457084 7.0758737,8.751404"
       transform="matrix(0,0.35889354,-0.3740938,0,27.763317,16.533872)" />
  </g>
</svg>
