<?xml version="1.0" encoding="UTF-8" standalone="no"?>
<svg
   id="svg4562"
   version="1.1"
   viewBox="0 0 195.74391 244.68355"
   height="244.68355mm"
   width="195.74391mm"
   sodipodi:docname="Icon.svg"
   inkscape:version="1.3 (0e150ed6c4, 2023-07-21)"
   inkscape:export-filename="Icon.png"
   inkscape:export-xdpi="103.80743"
   inkscape:export-ydpi="103.80743"
   xmlns:inkscape="http://www.inkscape.org/namespaces/inkscape"
   xmlns:sodipodi="http://sodipodi.sourceforge.net/DTD/sodipodi-0.dtd"
   xmlns="http://www.w3.org/2000/svg"
   xmlns:svg="http://www.w3.org/2000/svg"
   xmlns:rdf="http://www.w3.org/1999/02/22-rdf-syntax-ns#"
   xmlns:cc="http://creativecommons.org/ns#"
   xmlns:dc="http://purl.org/dc/elements/1.1/">
  <sodipodi:namedview
     id="namedview1"
     pagecolor="#505050"
     bordercolor="#eeeeee"
     borderopacity="1"
     inkscape:showpageshadow="0"
     inkscape:pageopacity="0"
     inkscape:pagecheckerboard="0"
     inkscape:deskcolor="#505050"
     inkscape:document-units="mm"
     inkscape:zoom="0.43200024"
     inkscape:cx="431.71272"
     inkscape:cy="400.46274"
     inkscape:window-width="1920"
     inkscape:window-height="1010"
     inkscape:window-x="-6"
     inkscape:window-y="-6"
     inkscape:window-maximized="1"
     inkscape:current-layer="svg4562" />
  <defs
     id="defs4556">
    <inkscape:path-effect
       effect="fillet_chamfer"
       id="path-effect12"
       is_visible="true"
       lpeversion="1"
       nodesatellites_param="F,0,0,1,0,1.3229167,0,1 @ F,0,0,1,0,1.3229167,0,1 @ F,0,0,1,0,1.3229167,0,1 @ F,0,0,1,0,1.3229167,0,1 @ F,0,0,1,0,1.3229167,0,1 @ F,0,0,1,0,1.3229167,0,1 @ F,0,0,1,0,1.3229167,0,1 @ F,0,0,1,0,1.3229167,0,1 | F,0,0,1,0,1.3229167,0,1 @ F,0,0,1,0,1.3229167,0,1 @ F,0,0,1,0,1.3229167,0,1 @ F,0,0,1,0,1.3229167,0,1 | F,0,0,1,0,1.3229167,0,1 @ F,0,0,1,0,1.3229167,0,1 @ F,0,0,1,0,1.3229167,0,1 @ F,0,0,1,0,1.3229167,0,1 | F,0,0,1,0,1.3229167,0,1 @ F,0,0,1,0,1.3229167,0,1 @ F,0,0,1,0,1.3229167,0,1 @ F,0,0,1,0,1.3229167,0,1 | F,0,0,1,0,1.3229167,0,1 @ F,0,0,1,0,1.3229167,0,1 @ F,0,0,1,0,1.3229167,0,1 @ F,0,0,1,0,1.3229167,0,1 | F,0,0,1,0,1.3229167,0,1 @ F,0,0,1,0,1.3229167,0,1 @ F,0,0,1,0,1.3229167,0,1 @ F,0,0,1,0,1.3229167,0,1"
       radius="5"
       unit="px"
       method="auto"
       mode="F"
       chamfer_steps="1"
       flexible="false"
       use_knot_distance="true"
       apply_no_radius="true"
       apply_with_radius="true"
       only_selected="false"
       hide_knots="false" />
    <inkscape:path-effect
       effect="fillet_chamfer"
       id="path-effect12-0"
       is_visible="true"
       lpeversion="1"
       nodesatellites_param="F,0,0,1,0,1.3229167,0,1 @ F,0,0,1,0,1.3229167,0,1 @ F,0,0,1,0,1.3229167,0,1 @ F,0,0,1,0,1.3229167,0,1 @ F,0,0,1,0,1.3229167,0,1 @ F,0,0,1,0,1.3229167,0,1 @ F,0,0,1,0,1.3229167,0,1 @ F,0,0,1,0,1.3229167,0,1 | F,0,0,1,0,1.3229167,0,1 @ F,0,0,1,0,1.3229167,0,1 @ F,0,0,1,0,1.3229167,0,1 @ F,0,0,1,0,1.3229167,0,1 | F,0,0,1,0,1.3229167,0,1 @ F,0,0,1,0,1.3229167,0,1 @ F,0,0,1,0,1.3229167,0,1 @ F,0,0,1,0,1.3229167,0,1 | F,0,0,1,0,1.3229167,0,1 @ F,0,0,1,0,1.3229167,0,1 @ F,0,0,1,0,1.3229167,0,1 @ F,0,0,1,0,1.3229167,0,1 | F,0,0,1,0,1.3229167,0,1 @ F,0,0,1,0,1.3229167,0,1 @ F,0,0,1,0,1.3229167,0,1 @ F,0,0,1,0,1.3229167,0,1 | F,0,0,1,0,1.3229167,0,1 @ F,0,0,1,0,1.3229167,0,1 @ F,0,0,1,0,1.3229167,0,1 @ F,0,0,1,0,1.3229167,0,1"
       radius="5"
       unit="px"
       method="auto"
       mode="F"
       chamfer_steps="1"
       flexible="false"
       use_knot_distance="true"
       apply_no_radius="true"
       apply_with_radius="true"
       only_selected="false"
       hide_knots="false" />
    <inkscape:path-effect
       effect="fillet_chamfer"
       id="path-effect12-0-4"
       is_visible="true"
       lpeversion="1"
       nodesatellites_param="F,0,0,1,0,1.3229167,0,1 @ F,0,0,1,0,1.3229167,0,1 @ F,0,0,1,0,1.3229167,0,1 @ F,0,0,1,0,1.3229167,0,1 @ F,0,0,1,0,1.3229167,0,1 @ F,0,0,1,0,1.3229167,0,1 @ F,0,0,1,0,1.3229167,0,1 @ F,0,0,1,0,1.3229167,0,1 | F,0,0,1,0,1.3229167,0,1 @ F,0,0,1,0,1.3229167,0,1 @ F,0,0,1,0,1.3229167,0,1 @ F,0,0,1,0,1.3229167,0,1 | F,0,0,1,0,1.3229167,0,1 @ F,0,0,1,0,1.3229167,0,1 @ F,0,0,1,0,1.3229167,0,1 @ F,0,0,1,0,1.3229167,0,1 | F,0,0,1,0,1.3229167,0,1 @ F,0,0,1,0,1.3229167,0,1 @ F,0,0,1,0,1.3229167,0,1 @ F,0,0,1,0,1.3229167,0,1 | F,0,0,1,0,1.3229167,0,1 @ F,0,0,1,0,1.3229167,0,1 @ F,0,0,1,0,1.3229167,0,1 @ F,0,0,1,0,1.3229167,0,1 | F,0,0,1,0,1.3229167,0,1 @ F,0,0,1,0,1.3229167,0,1 @ F,0,0,1,0,1.3229167,0,1 @ F,0,0,1,0,1.3229167,0,1"
       radius="5"
       unit="px"
       method="auto"
       mode="F"
       chamfer_steps="1"
       flexible="false"
       use_knot_distance="true"
       apply_no_radius="true"
       apply_with_radius="true"
       only_selected="false"
       hide_knots="false" />
  </defs>
  <metadata
     id="metadata4559">
    <rdf:RDF>
      <cc:Work
         rdf:about="">
        <dc:format>image/svg+xml</dc:format>
        <dc:type
           rdf:resource="http://purl.org/dc/dcmitype/StillImage" />
      </cc:Work>
    </rdf:RDF>
  </metadata>
  <path
     id="path6-1"
     style="fill:#808080;fill-opacity:1;stroke-width:5.29167;stroke-linecap:round;stroke-linejoin:round;stroke-miterlimit:3.5"
     d="m 77.281963,0.01578727 c -1.54244,-0.083759 -3.42919,0.1420129 -5.25497,1.25418703 -2.58796,1.576458 -3.11107,4.8436693 -2.16524,7.1458171 5.22505,12.7177676 7.36234,17.7168806 7.36234,27.0670816 0,12.179858 -7.64362,26.778477 -11.2603,40.276094 -8.6744,32.373283 26.74126,33.923563 31.61461,33.996373 4.873347,0.0728 33.563327,-0.53254 33.563327,-33.996373 0,-43.314655 -39.731847,-72.0345589 -50.669777,-75.13856543 -0.44939,-0.1275299 -1.64754,-0.5208556 -3.18999,-0.6046143 z M 133.5576,101.21788 c -0.56229,0.0259 -1.13948,0.32097 -1.45573,0.76843 -9.64536,13.6473 -27.14924,15.04172 -33.267217,15.13034 -0.73049,0.0106 -1.91523,-0.007 -2.64531,-0.0346 -6.39647,-0.24313 -26.45939,-1.9865 -35.09657,-14.38826 -0.41747,-0.59943 -1.28517,-0.92116 -1.97559,-0.68213 -35.33422,12.23317 -58.46179002,39.97021 -59.10647002,70.85303 -0.0152,0.73046 -0.0141,1.91541 0.003,2.64584 0.5762,25.27189 16.25847002,48.79027 42.14368002,63.18219 0.63855,0.35503 1.32492,0.0656 1.56838,-0.62322 5.62181,-15.90544 27.37107,-27.37749 52.82365,-27.79675 0.73052,-0.012 1.91529,-0.0126 2.64583,-0.002 25.512477,0.38725 47.331177,11.88181 52.945597,27.82672 0.24264,0.68907 0.92824,0.97808 1.56632,0.62219 25.85023,-14.41822 41.48747,-37.94523 42.02586,-63.20958 0.0156,-0.73045 0.015,-1.91541 -0.002,-2.64584 -0.71733,-31.63554 -25.00783,-59.86264 -61.62622,-71.57857 -0.17397,-0.0557 -0.35982,-0.0768 -0.54725,-0.0682 z M 57.039793,115.5338 c 0.7299,-0.0309 1.91488,-0.0309 2.6448,0 15.92993,0.67402 28.7242,13.46826 29.3982,29.3982 0.0309,0.72991 0.0309,1.91488 0,2.6448 -0.67427,15.92973 -13.46846,28.72369 -29.3982,29.39769 -0.72991,0.0309 -1.91488,0.0309 -2.6448,0 -15.92953,-0.67427 -28.72343,-13.46815 -29.39769,-29.39769 -0.0309,-0.7299 -0.0309,-1.91488 0,-2.6448 0.67401,-15.92974 13.46796,-28.72394 29.39769,-29.3982 z m 79.018947,0 c 0.7299,-0.0309 1.91488,-0.0309 2.6448,0 15.92993,0.67402 28.7242,13.46826 29.3982,29.3982 0.0309,0.72991 0.0309,1.91488 0,2.6448 -0.67427,15.92973 -13.46846,28.72369 -29.3982,29.39769 -0.72991,0.0309 -1.91488,0.0309 -2.6448,0 -15.92974,-0.67401 -28.72394,-13.46796 -29.39821,-29.39769 -0.0309,-0.7299 -0.0309,-1.91488 0,-2.6448 0.67402,-15.92993 13.46827,-28.7242 29.39821,-29.3982 z m -79.018947,7.37112 c -11.86284,0.6614 -21.36544,10.16422 -22.02656,22.02708 -0.0406,0.72939 -0.0406,1.9154 0,2.6448 0.66113,11.86286 10.16372,21.3657 22.02656,22.02708 0.72939,0.0407 1.9154,0.0406 2.6448,0 11.86305,-0.66114 21.36595,-10.16402 22.02708,-22.02708 0.0406,-0.72939 0.0406,-1.9154 0,-2.6448 -0.66114,-11.86305 -10.16403,-21.36595 -22.02708,-22.02708 -0.72939,-0.0406 -1.9154,-0.0407 -2.6448,0 z m 79.018947,0 c -11.86305,0.66114 -21.36595,10.16403 -22.02708,22.02708 -0.0407,0.72939 -0.0407,1.9154 0,2.6448 0.66114,11.86305 10.16402,21.36595 22.02708,22.02708 0.72939,0.0406 1.9154,0.0406 2.6448,0 11.86305,-0.66114 21.36595,-10.16402 22.02708,-22.02708 0.0406,-0.72939 0.0406,-1.9154 0,-2.6448 -0.66114,-11.86305 -10.16403,-21.36595 -22.02708,-22.02708 -0.72939,-0.0406 -1.9154,-0.0406 -2.6448,0 z m -39.509217,45.94655 c 0.72996,-0.0301 1.91485,-0.0301 2.6448,0 12.349577,0.50922 22.272197,8.1062 23.117447,17.63769 0.0645,0.72753 0.0645,1.9152 0,2.64273 -0.84557,9.53127 -10.76813,17.12795 -23.117447,17.63716 -0.72995,0.0301 -1.91484,0.0301 -2.6448,0 -12.34952,-0.50901 -22.27238,-8.10574 -23.11797,-17.63716 -0.0645,-0.72754 -0.0645,-1.9152 0,-2.64273 0.84527,-9.53164 10.76819,-17.12866 23.11797,-17.63769 z m -5.60689,49.49621 a 15.617757,13.167912 0 0 0 -15.61765,13.16818 15.617757,13.167912 0 0 0 15.61765,13.16768 15.617757,13.167912 0 0 0 15.617647,-13.16768 15.617757,13.167912 0 0 0 -15.617647,-13.16818 z"
     inkscape:label="D.E.a.R." />
</svg>
